<svg xmlns="http://www.w3.org/2000/svg" xmlns:xlink="http://www.w3.org/1999/xlink" width="3.5in" height="3.5in" viewBox="0 0 253 253"><defs><style>.a{fill:url(#a);}.b{fill:url(#b);}.c{fill:url(#c);}.d{fill:url(#d);}.e{fill:url(#e);}.f{fill:url(#f);}.g{fill:url(#g);}.h{fill:url(#h);}</style><linearGradient id="a" x1="936.31" y1="720.27" x2="845.93" y2="629.89" gradientUnits="userSpaceOnUse"><stop offset="0" stop-color="#fff4a3"/><stop offset="0.5" stop-color="#ffed00"/><stop offset="1" stop-color="#ffd018"/></linearGradient><linearGradient id="b" x1="897.16" y1="521.25" x2="897.16" y2="641.1" gradientUnits="userSpaceOnUse"><stop offset="0.21" stop-color="#ffc855"/><stop offset="0.88" stop-color="#ff9d4c"/></linearGradient><linearGradient id="c" x1="738.13" y1="681.17" x2="863.2" y2="681.17" xlink:href="#b"/><linearGradient id="d" x1="864.2" y1="753.53" x2="726.46" y2="753.53" xlink:href="#b"/><linearGradient id="e" x1="969.52" y1="648.48" x2="969.52" y2="507.07" xlink:href="#b"/><linearGradient id="f" x1="853.14" y1="758.6" x2="978.16" y2="758.6" xlink:href="#a"/><linearGradient id="g" x1="974.59" y1="643.29" x2="974.59" y2="743.71" xlink:href="#a"/><linearGradient id="h" x1="985.64" y1="769.65" x2="964.84" y2="748.84" xlink:href="#b"/></defs><path class="a" d="M961.1,629.5V745.1H845.6a50.1,50.1,0,0,1-12.3-32.9V617.3h95.1A49.5,49.5,0,0,1,961.1,629.5Z" transform="translate(-737.5 -521.5)"/><path class="b" d="M961.1,526.5v103a49.5,49.5,0,0,0-32.7-12.2H833.3v-74A21.8,21.8,0,0,1,855,521.5h97.9A9.3,9.3,0,0,1,961.1,526.5Z" transform="translate(-737.5 -521.5)"/><path class="c" d="M845.6,745.1H742.5a9.3,9.3,0,0,1-5-8.2V639a21.8,21.8,0,0,1,21.8-21.7h74v94.9A50.1,50.1,0,0,0,845.6,745.1Z" transform="translate(-737.5 -521.5)"/><path class="d" d="M877.3,762l-44-5.3-87.7-10.6a10.3,10.3,0,0,1-3.1-1H845.6A49.9,49.9,0,0,0,877.3,762Z" transform="translate(-737.5 -521.5)"/><path class="e" d="M978,661.2a49.9,49.9,0,0,0-16.9-31.7v-103a10.3,10.3,0,0,1,1,3.1l10.6,87.7Z" transform="translate(-737.5 -521.5)"/><path class="f" d="M961.1,745.1v27L877.4,762h-.1a49.9,49.9,0,0,1-31.7-16.9Z" transform="translate(-737.5 -521.5)"/><path class="g" d="M988.1,745.1h-27V629.5A49.9,49.9,0,0,1,978,661.2Z" transform="translate(-737.5 -521.5)"/><path class="h" d="M980.1,774.4l-19-2.3v-27h27l2.3,19A9.2,9.2,0,0,1,980.1,774.4Z" transform="translate(-737.5 -521.5)"/></svg>