<svg xmlns="http://www.w3.org/2000/svg" width="8.4in" height="2.3in" viewBox="0 0 607.2 165.2"><defs><style>.a{fill:#4d4d4d;}</style></defs><path class="a" d="M764.1,625.3V718c0,5.7-3.2,8.8-8.9,8.8H728.1c-5.6,0-8.8-3.1-8.8-8.8V626.9c0-15.5-5.7-23-17.3-23s-17.4,7.5-17.4,23V718c0,5.7-3.1,8.8-8.8,8.8H648.7c-5.7,0-8.8-3.1-8.8-8.8V626.9c0-15.5-5.7-23-17.7-23s-17,7.5-17,23V718c0,5.7-3.2,8.8-8.8,8.8H569.2c-5.6,0-8.8-3.1-8.8-8.8V625.3c0-38.5,21.1-59.9,59-59.9,18.3,0,32.8,5.7,42.5,15.8h.7c9.4-10.1,23.9-15.8,42.2-15.8C742.9,565.4,764.1,586.8,764.1,625.3Z" transform="translate(-560.4 -565.4)"/><path class="a" d="M900.9,629.4v40.7c0,38.7-22.7,60.5-63.7,60.5s-61.5-17.7-61.5-51.4c0-31.2,19.9-48.2,57.7-48.2h22.7c0-19.6-8.5-27.1-25.2-27.1a48.2,48.2,0,0,0-24.9,7.5c-5,3.2-9.1,2.6-12-2.5l-9.8-18c-2.8-4.7-1.8-8.8,2.6-11.9,14.5-9.2,29.9-13.6,48.5-13.6C877.2,565.4,900.9,587.2,900.9,629.4Zm-44.8,38.1v-6.6H839.7c-12,0-19.2,6-19.2,15.8s6.3,15.4,16.7,15.4Q856.1,692.1,856.1,667.5Z" transform="translate(-560.4 -565.4)"/><path class="a" d="M1038.3,672c0,37.8-22,58.6-61.4,58.6s-61.5-20.8-61.5-58.6V578c0-5.7,3.1-8.8,8.8-8.8h27.1c5.7,0,8.8,3.1,8.8,8.8v92.7c0,14.8,5.4,21.4,17.4,21.4s17.3-6.6,17.3-21.4V578c0-5.7,3.2-8.8,8.9-8.8h25.8c5.7,0,8.8,3.1,8.8,8.8Z" transform="translate(-560.4 -565.4)"/><path class="a" d="M1110.2,730.6c-25.2,0-42.9-4.7-57.7-15.5-4.4-3.1-5-7.5-2.2-11.9l10.7-18c3.2-5,7.3-5.7,12.3-2.5,10.1,6.6,21.1,10.1,31.5,10.1,12.3,0,19-4.8,19-13.3,0-6.9-5.1-10.7-23.1-12.9-35.9-4.7-50.4-20.5-50.4-51.1s23.7-50.1,59.3-50.1c18.3,0,34.7,4.1,47.3,11.4,4.4,2.8,5,7.2,2.5,11.9l-9.5,17.7c-2.8,5-6.9,6-12,3.1a46.8,46.8,0,0,0-23.3-6.3c-13.5,0-20.5,4.4-20.5,13.3,0,6.6,5.4,10.1,22.4,12,36.3,4.1,51.1,20.8,51.1,52S1145.2,730.6,1110.2,730.6Z" transform="translate(-560.4 -565.4)"/></svg>