<svg xmlns="http://www.w3.org/2000/svg" xmlns:xlink="http://www.w3.org/1999/xlink" width="12.5in" height="3.5in" viewBox="0 0 898.2 253"><defs><style>.a{fill:url(#a);}.b{fill:url(#b);}.c{fill:url(#c);}.d{fill:url(#d);}.e{fill:url(#e);}.f{fill:url(#f);}.g{fill:url(#g);}.h{fill:url(#h);}.i{fill:#4d4d4d;}</style><linearGradient id="a" x1="613.68" y1="720.27" x2="523.3" y2="629.89" gradientUnits="userSpaceOnUse"><stop offset="0" stop-color="#fff4a3"/><stop offset="0.5" stop-color="#ffed00"/><stop offset="1" stop-color="#ffd018"/></linearGradient><linearGradient id="b" x1="574.53" y1="521.25" x2="574.53" y2="641.1" gradientUnits="userSpaceOnUse"><stop offset="0.21" stop-color="#ffc855"/><stop offset="0.88" stop-color="#ff9d4c"/></linearGradient><linearGradient id="c" x1="415.49" y1="681.17" x2="540.56" y2="681.17" xlink:href="#b"/><linearGradient id="d" x1="541.56" y1="753.53" x2="403.82" y2="753.53" xlink:href="#b"/><linearGradient id="e" x1="646.89" y1="648.48" x2="646.89" y2="507.07" xlink:href="#b"/><linearGradient id="f" x1="530.51" y1="758.6" x2="655.52" y2="758.6" xlink:href="#a"/><linearGradient id="g" x1="651.96" y1="643.29" x2="651.96" y2="743.71" xlink:href="#a"/><linearGradient id="h" x1="663.01" y1="769.65" x2="642.2" y2="748.84" xlink:href="#b"/></defs><path class="a" d="M638.4,629.5V745.1H522.9a50.1,50.1,0,0,1-12.3-32.9V617.3h95.1A49.3,49.3,0,0,1,638.4,629.5Z" transform="translate(-414.9 -521.5)"/><path class="b" d="M638.4,526.5v103a49.3,49.3,0,0,0-32.7-12.2H510.6v-74a21.9,21.9,0,0,1,21.8-21.8h97.8A9.1,9.1,0,0,1,638.4,526.5Z" transform="translate(-414.9 -521.5)"/><path class="c" d="M522.9,745.1H419.8a9.4,9.4,0,0,1-4.9-8.2V639a21.7,21.7,0,0,1,21.7-21.7h74v94.9A50.1,50.1,0,0,0,522.9,745.1Z" transform="translate(-414.9 -521.5)"/><path class="d" d="M554.6,762l-44-5.3L423,746.1a11.9,11.9,0,0,1-3.2-1H522.9A50.1,50.1,0,0,0,554.6,762Z" transform="translate(-414.9 -521.5)"/><path class="e" d="M655.3,661.2a49.4,49.4,0,0,0-16.9-31.7v-103a8.1,8.1,0,0,1,1,3.1L650,617.3Z" transform="translate(-414.9 -521.5)"/><path class="f" d="M638.4,745.1v27L554.8,762h-.2a50.1,50.1,0,0,1-31.7-16.9Z" transform="translate(-414.9 -521.5)"/><path class="g" d="M665.5,745.1H638.4V629.5a49.4,49.4,0,0,1,16.9,31.7Z" transform="translate(-414.9 -521.5)"/><path class="h" d="M657.5,774.4l-19.1-2.3v-27h27.1l2.3,19A9.3,9.3,0,0,1,657.5,774.4Z" transform="translate(-414.9 -521.5)"/><path class="i" d="M909.6,644.3V737c0,5.7-3.1,8.8-8.8,8.8H873.7c-5.7,0-8.9-3.1-8.9-8.8V645.9c0-15.5-5.6-23-17.3-23s-17.3,7.5-17.3,23V737c0,5.7-3.2,8.8-8.9,8.8H794.2c-5.6,0-8.8-3.1-8.8-8.8V645.9c0-15.5-5.7-23-17.6-23s-17.1,7.5-17.1,23V737c0,5.7-3.1,8.8-8.8,8.8H714.8c-5.7,0-8.8-3.1-8.8-8.8V644.3c0-38.5,21.1-59.9,58.9-59.9,18.3,0,32.8,5.7,42.6,15.8h.6c9.5-10.1,24-15.8,42.2-15.8C888.5,584.4,909.6,605.8,909.6,644.3Z" transform="translate(-414.9 -521.5)"/><path class="i" d="M1046.4,648.4v40.7c0,38.7-22.7,60.5-63.7,60.5s-61.4-17.7-61.4-51.4c0-31.2,19.8-48.2,57.7-48.2h22.7c0-19.6-8.5-27.1-25.3-27.1a48.2,48.2,0,0,0-24.9,7.5c-5,3.2-9.1,2.6-11.9-2.5l-9.8-18c-2.9-4.7-1.9-8.8,2.5-11.9,14.5-9.2,30-13.6,48.6-13.6C1022.8,584.4,1046.4,606.2,1046.4,648.4Zm-44.7,38.1v-6.6H985.3c-12,0-19.3,6-19.3,15.8s6.3,15.4,16.7,15.4C995.4,711.1,1001.7,702.9,1001.7,686.5Z" transform="translate(-414.9 -521.5)"/><path class="i" d="M1183.9,691c0,37.8-22.1,58.6-61.5,58.6s-61.5-20.8-61.5-58.6V597c0-5.7,3.2-8.8,8.9-8.8h27.1c5.6,0,8.8,3.1,8.8,8.8v92.7c0,14.8,5.4,21.4,17.3,21.4s17.4-6.6,17.4-21.4V597c0-5.7,3.1-8.8,8.8-8.8H1175c5.7,0,8.9,3.1,8.9,8.8Z" transform="translate(-414.9 -521.5)"/><path class="i" d="M1255.7,749.6c-25.2,0-42.8-4.7-57.6-15.5-4.5-3.1-5.1-7.5-2.2-11.9l10.7-18c3.1-5,7.2-5.7,12.3-2.5,10.1,6.6,21.1,10.1,31.5,10.1,12.3,0,18.9-4.8,18.9-13.3,0-6.9-5-10.7-23-12.9-35.9-4.7-50.4-20.5-50.4-51.1s23.6-50.1,59.2-50.1c18.3,0,34.7,4.1,47.3,11.4,4.4,2.8,5,7.2,2.5,11.9l-9.4,17.7c-2.9,5-7,6-12,3.1a47.1,47.1,0,0,0-23.3-6.3c-13.6,0-20.5,4.4-20.5,13.3,0,6.6,5.3,10.1,22.4,12,36.2,4.1,51,20.8,51,52S1290.7,749.6,1255.7,749.6Z" transform="translate(-414.9 -521.5)"/></svg>