<svg xmlns="http://www.w3.org/2000/svg" xmlns:xlink="http://www.w3.org/1999/xlink" width="12.8in" height="3.5in" viewBox="0 0 919.2 253"><defs><style>.a{fill:url(#a);}.b{fill:url(#b);}.c{fill:url(#c);}.d{fill:url(#d);}.e{fill:url(#e);}.f{fill:url(#f);}.g{fill:url(#g);}.h{fill:url(#h);}.i{fill:#4d4d4d;}</style><linearGradient id="a" x1="613.68" y1="725.77" x2="523.3" y2="635.39" gradientUnits="userSpaceOnUse"><stop offset="0" stop-color="#fff4a3"/><stop offset="0.5" stop-color="#ffed00"/><stop offset="1" stop-color="#ffd018"/></linearGradient><linearGradient id="b" x1="574.53" y1="526.75" x2="574.53" y2="646.6" gradientUnits="userSpaceOnUse"><stop offset="0.21" stop-color="#ffc855"/><stop offset="0.88" stop-color="#ff9d4c"/></linearGradient><linearGradient id="c" x1="415.49" y1="686.67" x2="540.56" y2="686.67" xlink:href="#b"/><linearGradient id="d" x1="541.56" y1="759.03" x2="403.82" y2="759.03" xlink:href="#b"/><linearGradient id="e" x1="646.89" y1="653.98" x2="646.89" y2="512.57" xlink:href="#b"/><linearGradient id="f" x1="530.51" y1="764.1" x2="655.52" y2="764.1" xlink:href="#a"/><linearGradient id="g" x1="651.96" y1="648.79" x2="651.96" y2="749.21" xlink:href="#a"/><linearGradient id="h" x1="663.01" y1="775.15" x2="642.2" y2="754.34" xlink:href="#b"/></defs><path class="a" d="M638.4,635V750.6H522.9a50.1,50.1,0,0,1-12.3-32.9V622.8h95.1A49.3,49.3,0,0,1,638.4,635Z" transform="translate(-414.9 -527)"/><path class="b" d="M638.4,532V635a49.3,49.3,0,0,0-32.7-12.2H510.6v-74A21.9,21.9,0,0,1,532.4,527h97.8A9.1,9.1,0,0,1,638.4,532Z" transform="translate(-414.9 -527)"/><path class="c" d="M522.9,750.6H419.8a9.4,9.4,0,0,1-4.9-8.2V644.5a21.7,21.7,0,0,1,21.7-21.7h74v94.9A50.1,50.1,0,0,0,522.9,750.6Z" transform="translate(-414.9 -527)"/><path class="d" d="M554.6,767.5l-44-5.3L423,751.6a11.9,11.9,0,0,1-3.2-1H522.9A50.1,50.1,0,0,0,554.6,767.5Z" transform="translate(-414.9 -527)"/><path class="e" d="M655.3,666.7A49.4,49.4,0,0,0,638.4,635V532a8.1,8.1,0,0,1,1,3.1L650,622.8Z" transform="translate(-414.9 -527)"/><path class="f" d="M638.4,750.6v27l-83.6-10.1h-.2a50.1,50.1,0,0,1-31.7-16.9Z" transform="translate(-414.9 -527)"/><path class="g" d="M665.5,750.6H638.4V635a49.4,49.4,0,0,1,16.9,31.7Z" transform="translate(-414.9 -527)"/><path class="h" d="M657.5,779.9l-19.1-2.3v-27h27.1l2.3,19A9.3,9.3,0,0,1,657.5,779.9Z" transform="translate(-414.9 -527)"/><path class="i" d="M930.6,634.8v92.7c0,5.7-3.1,8.8-8.8,8.8H894.7c-5.7,0-8.9-3.1-8.9-8.8V636.4c0-15.5-5.6-23-17.3-23s-17.3,7.5-17.3,23v91.1c0,5.7-3.2,8.8-8.9,8.8H815.2c-5.6,0-8.8-3.1-8.8-8.8V636.4c0-15.5-5.7-23-17.6-23s-17.1,7.5-17.1,23v91.1c0,5.7-3.1,8.8-8.8,8.8H735.8c-5.7,0-8.8-3.1-8.8-8.8V634.8c0-38.5,21.1-59.9,58.9-59.9,18.3,0,32.8,5.7,42.6,15.8h.6c9.5-10.1,24-15.8,42.2-15.8C909.5,574.9,930.6,596.3,930.6,634.8Z" transform="translate(-414.9 -527)"/><path class="i" d="M1067.4,638.9v40.7c0,38.7-22.7,60.5-63.7,60.5s-61.4-17.7-61.4-51.4c0-31.2,19.8-48.2,57.7-48.2h22.7c0-19.6-8.5-27.1-25.3-27.1a48.2,48.2,0,0,0-24.9,7.5c-5,3.2-9.1,2.6-11.9-2.5l-9.8-18c-2.9-4.7-1.9-8.8,2.5-11.9,14.5-9.2,30-13.6,48.6-13.6C1043.8,574.9,1067.4,596.7,1067.4,638.9ZM1022.7,677v-6.6h-16.4c-12,0-19.3,6-19.3,15.8s6.3,15.4,16.7,15.4C1016.4,701.6,1022.7,693.4,1022.7,677Z" transform="translate(-414.9 -527)"/><path class="i" d="M1204.9,681.5c0,37.8-22.1,58.6-61.5,58.6s-61.5-20.8-61.5-58.6v-94c0-5.7,3.2-8.8,8.9-8.8h27.1c5.6,0,8.8,3.1,8.8,8.8v92.7c0,14.8,5.4,21.4,17.3,21.4s17.4-6.6,17.4-21.4V587.5c0-5.7,3.1-8.8,8.8-8.8H1196c5.7,0,8.9,3.1,8.9,8.8Z" transform="translate(-414.9 -527)"/><path class="i" d="M1276.7,740.1c-25.2,0-42.8-4.7-57.6-15.5-4.5-3.1-5.1-7.5-2.2-11.9l10.7-18c3.1-5,7.2-5.7,12.3-2.5,10.1,6.6,21.1,10.1,31.5,10.1,12.3,0,18.9-4.8,18.9-13.3,0-6.9-5-10.7-23-12.9-35.9-4.7-50.4-20.5-50.4-51.1s23.6-50.1,59.2-50.1c18.3,0,34.7,4.1,47.3,11.4,4.4,2.8,5,7.2,2.5,11.9l-9.4,17.7c-2.9,5-7,6-12,3.1a47.1,47.1,0,0,0-23.3-6.3c-13.6,0-20.5,4.4-20.5,13.3,0,6.6,5.3,10.1,22.4,12,36.2,4.1,51,20.8,51,52S1311.7,740.1,1276.7,740.1Z" transform="translate(-414.9 -527)"/></svg>